<?xml version="1.0" encoding="UTF-8"?>
<svg xmlns="http://www.w3.org/2000/svg" version="1.2" baseProfile="tiny-ps" viewBox="0 0 878 878">
  <title>Norbert Banhalmi</title>
  <desc>BIMI logo</desc>
  <rect x="0" y="0" width="878" height="878" fill="#FFFFFF"/>
  <g transform="translate(50 1)">
    <path fill="#000000" fill-rule="evenodd" d="M476 520L459 539L464 549L467 562L467 583L462 602L450 622L433 638L401 654L368 665L322 673L280 673L272 676L268 681L268 685L273 690L283 693L315 694L345 691L372 685L396 676L428 657L464 623L475 609L486 588L490 572L490 550L484 532ZM420 223L389 236L368 286L343 339L300 421L285 426L256 429L251 436L252 445L259 454L268 459L280 462L281 464L258 508L194 644L174 697L168 724L169 729L174 726L179 717L204 653L249 562L303 466L333 472L369 483L409 499L424 506L437 486L437 484L429 478L398 461L367 449L335 442L331 439L330 433L340 427L397 413L451 395L498 375L507 358L507 354L462 375L408 395L331 418L327 417L375 322ZM515 158L496 161L469 169L411 196L376 218L331 252L290 291L257 330L245 348L237 364L231 389L251 359L257 356L267 339L290 311L339 264L400 220L456 189L491 175L507 171L537 169L549 172L564 182L572 196L575 209L574 238L564 271L546 312L508 386L453 483L405 562L403 573L406 576L412 577L419 574L424 569L459 518L524 437L562 395L616 342L666 301L708 274L727 265L743 261L752 262L757 266L758 281L754 292L666 469L644 520L595 648L558 757L542 812L538 831L538 843L542 857L549 868L556 874L569 875L588 867L612 850L641 822L653 803L652 800L649 801L614 834L587 855L563 866L557 866L553 863L550 854L552 838L549 829L551 807L561 769L586 698L631 590L670 505L725 400L776 309L777 287L774 274L768 265L755 252L748 249L723 254L690 271L653 298L607 339L549 397L505 446L482 476L475 483L473 483L472 478L523 389L557 322L574 282L584 246L583 208L577 190L568 176L559 167L548 161L537 158ZM445 126L431 125L422 128L412 134L403 143L403 146L407 147L411 151L413 159L409 183L441 168L448 142L448 131ZM2 102L0 111L0 127L11 155L24 172L43 191L75 217L85 221L86 213L83 208L63 192L48 177L39 165L30 149L23 127L24 111L34 88L44 74L57 61L76 47L93 38L120 28L151 21L198 16L310 19L389 28L456 44L490 56L527 73L545 83L584 111L609 134L624 154L632 173L636 195L635 215L631 233L624 251L610 275L600 288L569 317L564 338L585 324L606 307L627 285L647 253L658 219L660 198L659 183L652 156L638 130L611 101L564 66L529 47L475 26L414 11L360 4L290 0L234 0L154 10L120 18L89 28L46 49L29 61L18 72L8 87Z"/>
  </g>
</svg>